<?xml version="1.0" encoding="utf-8"?>
<!-- Generator: Adobe Illustrator 26.0.1, SVG Export Plug-In . SVG Version: 6.00 Build 0)  -->
<svg version="1.1" id="Layer_1" xmlns="http://www.w3.org/2000/svg" xmlns:xlink="http://www.w3.org/1999/xlink" x="0px" y="0px"
	 viewBox="0 0 41 38" style="enable-background:new 0 0 41 38;" xml:space="preserve">
<style type="text/css">
	.st0{fill:#231F20;}
</style>
<g>
	<path class="st0" d="M34.8,12.5H7.2C4.9,12.5,3,10.6,3,8.3v0C3,5.9,4.9,4,7.2,4h27.5C37.1,4,39,5.9,39,8.3v0
		C39,10.6,37.1,12.5,34.8,12.5z"/>
	<path class="st0" d="M34.8,24.2H7.2C4.9,24.2,3,22.3,3,20v0c0-2.3,1.9-4.2,4.2-4.2h27.5c2.3,0,4.2,1.9,4.2,4.2v0
		C39,22.3,37.1,24.2,34.8,24.2z"/>
	<path class="st0" d="M34.8,36H7.2C4.9,36,3,34.1,3,31.7v0c0-2.3,1.9-4.2,4.2-4.2h27.5c2.3,0,4.2,1.9,4.2,4.2v0
		C39,34.1,37.1,36,34.8,36z"/>
</g>
</svg>
