<svg enable-background="new 0 0 167 170" viewBox="0 0 167 170" xmlns="http://www.w3.org/2000/svg"><path d="m-574.4 121.1c-19.8 0-35.9-16.1-35.9-35.9v-8.1h71.9v8.1c-.1 19.8-16.2 35.9-36 35.9zm-18-27.8c3.1 6.8 10 11.6 18 11.6s14.9-4.8 18-11.6z" fill="#231f20"/><path d="m-546.6 77.1h44v16.2h-44z" fill="#231f20"/><path d="m-516.2 85.2c0 32.1-26.1 58.2-58.2 58.2s-58.2-26.1-58.2-58.2 26.1-58.2 58.2-58.2c23.3 0 43.5 13.8 52.7 33.6h6c-9.6-23-32.3-39.1-58.8-39.1-35.1 0-63.7 28.6-63.7 63.7s28.6 63.7 63.7 63.7 63.7-28.6 63.7-63.7c0-2.7-.2-5.5-.5-8.1h-5.5c.4 2.6.6 5.3.6 8.1z" fill="none"/><path d="m-511.2 77.1c.3 2.7.5 5.4.5 8.1 0 35.1-28.6 63.7-63.7 63.7s-63.7-28.6-63.7-63.7 28.6-63.7 63.7-63.7c26.4 0 49.1 16.2 58.8 39.1h17.3c-10.4-32.1-40.6-55.3-76-55.3-44.1 0-79.9 35.9-79.9 79.9s35.9 79.9 79.9 79.9 79.9-35.9 79.9-79.9c0-2.7-.1-5.4-.4-8.1z"/><path d="m-574.4 27c-32.1 0-58.2 26.1-58.2 58.2s26.1 58.2 58.2 58.2 58.2-26.1 58.2-58.2c0-2.8-.2-5.5-.6-8.1h-16.4c.5 2.6.8 5.3.8 8.1 0 23.1-18.8 42-42 42-23.1 0-42-18.8-42-42 0-23.1 18.8-42 42-42 14 0 26.4 6.9 34 17.4h18.7c-9.3-19.8-29.4-33.6-52.7-33.6z"/><g fill="#fff"><path d="m83.6 121.1c-19.8 0-35.9-16.1-35.9-35.9v-8.1h71.9v8.1c-.1 19.8-16.2 35.9-36 35.9zm-18-27.8c3.1 6.8 10 11.6 18 11.6s14.9-4.8 18-11.6z"/><path d="m111.4 77.1h44v16.2h-44z"/><path d="m146.8 77.1c.3 2.7.5 5.4.5 8.1 0 35.1-28.6 63.7-63.7 63.7s-63.7-28.6-63.7-63.7 28.6-63.7 63.7-63.7c26.4 0 49.1 16.2 58.8 39.1h17.3c-10.4-32.1-40.6-55.3-76-55.3-44.2 0-80 35.8-80 79.9s35.9 79.9 79.9 79.9 79.9-35.9 79.9-79.9c0-2.7-.1-5.4-.4-8.1z"/><path d="m83.6 27c-32.1 0-58.2 26.1-58.2 58.2s26.1 58.2 58.2 58.2 58.2-26.1 58.2-58.2c0-2.8-.2-5.5-.6-8.1h-16.4c.5 2.6.8 5.3.8 8.1 0 23.1-18.8 42-42 42-23.1 0-42-18.8-42-42 0-23.1 18.8-42 42-42 14 0 26.4 6.9 34 17.4h18.7c-9.3-19.8-29.4-33.6-52.7-33.6z"/></g><path d="m-520.4 774.9h-52.9c-15.8 0-28.6-12.8-28.6-28.6v-52.9c0-15.8 12.8-28.6 28.6-28.6h52.9c15.8 0 28.6 12.8 28.6 28.6v52.9c-.1 15.8-12.9 28.6-28.6 28.6z" fill="none" stroke="#fff" stroke-miterlimit="10" stroke-width="11.9167"/><circle cx="-546.9" cy="719.9" fill="none" r="25.8" stroke="#fff" stroke-miterlimit="10" stroke-width="10.9591"/><circle cx="-514" cy="688" fill="none" r="2.5" stroke="#fff" stroke-miterlimit="10" stroke-width="10.9591"/></svg>