<?xml version="1.0" encoding="utf-8"?>
<!-- Generator: Adobe Illustrator 26.0.1, SVG Export Plug-In . SVG Version: 6.00 Build 0)  -->
<svg version="1.1" id="Layer_1" xmlns="http://www.w3.org/2000/svg" xmlns:xlink="http://www.w3.org/1999/xlink" x="0px" y="0px"
	 viewBox="0 0 166 169" style="enable-background:new 0 0 166 169;" xml:space="preserve">
<style type="text/css">
	.st0{fill:none;}
	.st1{fill:#FFFFFF;}
	.st2{fill:none;stroke:#FFFFFF;stroke-width:11.9167;stroke-miterlimit:10;}
	.st3{fill:none;stroke:#FFFFFF;stroke-width:10.9591;stroke-miterlimit:10;}
</style>
<g>
	<path d="M82.6,121.1c-19.8,0-35.9-16.1-35.9-35.9v-8.1h71.9v8.1C118.5,105,102.4,121.1,82.6,121.1z M64.6,93.3
		c3.1,6.8,10,11.6,18,11.6s14.9-4.8,18-11.6H64.6z"/>
	<rect x="110.4" y="77.1" width="44" height="16.2"/>
	<path class="st0" d="M140.8,85.2c0,32.1-26.1,58.2-58.2,58.2s-58.2-26.1-58.2-58.2S50.5,27,82.6,27c23.3,0,43.5,13.8,52.7,33.6h6
		c-9.6-23-32.3-39.1-58.8-39.1c-35.1,0-63.7,28.6-63.7,63.7s28.6,63.7,63.7,63.7s63.7-28.6,63.7-63.7c0-2.7-0.2-5.5-0.5-8.1h-5.5
		C140.6,79.7,140.8,82.4,140.8,85.2z"/>
	<path d="M145.8,77.1c0.3,2.7,0.5,5.4,0.5,8.1c0,35.1-28.6,63.7-63.7,63.7s-63.7-28.6-63.7-63.7s28.6-63.7,63.7-63.7
		c26.4,0,49.1,16.2,58.8,39.1h17.3c-10.4-32.1-40.6-55.3-76-55.3C38.5,5.3,2.7,41.1,2.7,85.2s35.9,79.9,79.9,79.9
		s79.9-35.9,79.9-79.9c0-2.7-0.1-5.4-0.4-8.1H145.8z"/>
	<path d="M82.6,27c-32.1,0-58.2,26.1-58.2,58.2s26.1,58.2,58.2,58.2s58.2-26.1,58.2-58.2c0-2.8-0.2-5.5-0.6-8.1h-16.4
		c0.5,2.6,0.8,5.3,0.8,8.1c0,23.1-18.8,42-42,42c-23.1,0-42-18.8-42-42c0-23.1,18.8-42,42-42c14,0,26.4,6.9,34,17.4h18.7
		C126,40.8,105.9,27,82.6,27z"/>
</g>
</svg>
